<svg xmlns="http://www.w3.org/2000/svg" xml:space="preserve" id="Capa_1" x="0" y="0" viewBox="0 0 481.9 668"><style>.st0{fill:#2b4690}</style><title>Cuerpo Nacional de Policía</title><path d="M177 185.1c0-4 3.2-7.2 7.2-7.2s7.2 3.2 7.2 7.2-3.2 7.2-7.2 7.2c-3.9 0-7.2-3.2-7.2-7.2m113.4 0c0-4 3.2-7.2 7.2-7.2s7.2 3.2 7.2 7.2-3.2 7.2-7.2 7.2c-3.9 0-7.2-3.2-7.2-7.2m-56.7-7.2c0-4 3.3-7.2 7.4-7.2s7.4 3.2 7.4 7.2-3.3 7.2-7.4 7.2-7.4-3.2-7.4-7.2M131.5 344.3c-4.2-.9-7.6 1.5-8.9 5.4-1.9 5.4 1.1 10 6.3 11.8 5.1 1.7 10.2-.1 12.1-5.5 1.5-4.3-.3-8.3-4.5-10.2l-1.3 3.7c2.2 1.1 3.4 3 2.6 5.3-1.2 3.5-4.6 3.8-7.5 2.7-3.1-1.1-5.6-3.4-4.4-6.9.7-1.9 2.6-3.1 4.4-2.8zm4.2-20.9-2 3.6 10.1 5.6c2.4 1.3 3.1 2.8 1.7 5.3-1.6 2.9-3.6 2.4-5.4 1.4l-10.1-5.6-2 3.6 10.1 5.6c4.4 2.4 7.9 1.1 10.3-3.3s1.7-8.1-2.7-10.6zm18 6.8 8.8-11-2.7-2.2-6.2 7.8-3.6-2.9 5.7-7-2.5-2-5.6 7-3.1-2.5 6.1-7.6-2.6-2.2-8.8 10.9zm2.8-26.8 3.3-3c1.4-1.2 2.6-1.3 3.8 0 1.2 1.4 1 2.6-.3 3.9l-3.3 3zm7.3 14.2 3-2.7-4.8-5.4 3-2.7c1.5-1.4 2.7-1.2 4.2 0 1.1 1 2.3 2.3 3.5 2.9l3-2.7c-1.2-.3-2.7-1.9-3.5-2.7-1.3-1.3-3.1-2.4-4.9-1.4 1-2 .5-3.8-.9-5.4-1.9-2.1-5-2.4-7.5-.2l-7.4 6.7zm8.7-26.9 2.7-1.7c1.6-1 3.2-1.6 4.5.4s.1 3.3-1.5 4.3l-2.7 1.7zm4.9 15.1 3.4-2.2-3.6-5.6 3.6-2.3c3.9-2.5 3.8-6 2.1-8.5-1.6-2.5-4.7-4-8.6-1.5l-7 4.6zm13.3-18.7c-1.3-3-1.3-6.4 2-7.9s5.9.8 7.2 3.8c1.3 2.8 1.3 6.2-2.1 7.7s-5.9-.7-7.1-3.6m-3.8 1.7c2.2 4.9 7 7.5 12.2 5.1 5.2-2.3 6.6-7.6 4.4-12.5-2.2-5-7.1-7.6-12.3-5.3s-6.5 7.6-4.3 12.7m27.7-.9 3.8-.6-2-12.3h.1l9.5 11.1 4.1-.7-2.9-18.3-3.8.6 1.9 12.3-9.6-11.1-4 .6zm25-16.9 2.5 6.8-4.8.1zm-8.8 14.1 4.1-.1 1.4-4.2 6.9-.1 1.5 4.1 4.2-.1-7.3-18.5-4.2.1zm37.2-9.7c.2-4.3-2.8-7.2-6.9-7.9-5.7-.9-9.7 2.8-10.5 8.3-.8 5.3 1.8 10.1 7.5 11 4.5.7 8.1-1.7 9.2-6.2l-3.9-.6c-.7 2.4-2.3 3.8-4.8 3.5-3.6-.6-4.5-3.9-4-6.9.5-3.2 2.4-6.1 6-5.5 2 .3 3.5 2 3.5 3.9zm-.2 13.1 4 1 4.8-17.9-4-1.1zm13-5.7c1.2-3 3.7-5.4 7.1-4s3.5 4.8 2.3 7.8c-1.2 2.9-3.6 5.3-7 3.9s-3.5-4.8-2.4-7.7m-3.7-1.5c-2 5-.5 10.2 4.8 12.4s10.1-.6 12.1-5.5c2.1-5.1.5-10.4-4.8-12.5-5.4-2.2-10.1.5-12.1 5.6m15.3 16.7 3.2 2.1 6.7-10.4h.1l-.3 14.6 3.4 2.3 10.1-15.6-3.2-2.1-6.8 10.4.3-14.7-3.4-2.2zm30.1 5.1-2.9 6.6-3.5-3.3zm-16.2 4 3 2.8 3.9-2 5.1 4.7-1.8 4 3.1 2.9 7.6-18.3-3.1-2.9zm13.7 13.2 8.2 10.2 2.7-2.2-5.7-7 11.8-9.6-2.6-3.2zm27 12.2 1.4 2.6c1.9 3.6.4 5.9-2.9 7.6-3.6 1.9-6 .6-7.1-1.5l-1.7-3.2zm-15.2 3.6 3.8 7.1c2.7 5 7.5 5.6 12.2 3 5.4-2.9 6.4-7.5 4.1-11.8l-3.8-7.1zm8.2 16.7 4.4 13.4 3.2-1.1-3.1-9.5 4.4-1.4 2.7 8.6 3.1-1-2.8-8.6 3.8-1.2 3 9.3 3.2-1.1-4.2-13.2zM201.1 499.7l3 1c1.8.6 3.3 1.6 2.5 3.8s-2.5 2.1-4.3 1.5l-3-1zm-8.9 13.2 3.9 1.3 2.2-6.3 4 1.4c4.4 1.5 7-.7 8-3.5 1-2.9.2-6.2-4.1-7.7l-7.9-2.7z" class="st0"/><path d="M213.3 510c.6-3.2 2.6-6 6.2-5.3s4.4 4 3.7 7.2c-.6 3-2.5 5.8-6.1 5.1-3.6-.6-4.4-3.9-3.8-7m-4-.7c-1 5.3 1.5 10.1 7.1 11.2s9.8-2.5 10.8-7.7c1-5.4-1.4-10.3-7.1-11.4-5.6-1.1-9.7 2.4-10.8 7.9m18.7 12.5 13 .9.3-3.4-9-.6 1-15.2-4-.2zm14.38-18.02 4.1-.14.65 18.59-4.1.14zm22.42 4.02c-1.1-4.2-4.8-6.1-8.8-5.5-5.7.8-8.4 5.5-7.7 11 .7 5.3 4.7 9.1 10.4 8.3 4.5-.6 7.2-4 7-8.7l-3.9.5c0 2.5-1.1 4.4-3.6 4.7-3.6.5-5.4-2.4-5.9-5.5-.5-3.2.5-6.5 4.1-7 2-.3 4 .9 4.5 2.7zm4.3 11.4 3.9-1-4.5-18-3.9 1zm9.3-17.2 4.5 5.7-4.5 1.6zm-4 16.2 3.9-1.3v-4.4l6.6-2.3 2.7 3.5 4-1.4L279 497l-4 1.4z" class="st0"/><path d="m240.9 641.6 21-8.6-8.1-90.8a140 140 0 0 1-25.9 0L220 633zm25.9-101.1 12.3 70.4 17.6-7.6-17.6-65.5q-6.15 1.5-12.3 2.7m24.9-6.7 25.2 70.5 11 .5 7.4-7.4-31.9-68.5c-3.9 1.8-7.8 3.4-11.7 4.9m23.8-11.3 33.4 59.3 17.9-7.1-40.7-59c-3.4 2.4-7 4.7-10.6 6.8M336 508l58.4 70 19.9-8.3 5.6-24.3-66.1-55.2c-5.5 6.5-11.4 12.4-17.8 17.8m25.7-28.1 50.1 35.2 4.4-18.8-47.4-27.5c-2.2 3.8-4.6 7.5-7.1 11.1m13.1-22.6 54.1 25 6-6.8-2.1-10.6-53.1-19.5c-1.4 4-3.1 8-4.9 11.9m8.9-24.4 44.6 11.9 3.9-16.6-45.7-8.1c-.8 4.4-1.7 8.6-2.8 12.8m4.4-25.4 62.7 5.5 4.7-18.5-4.5-18.4-62.8 5.5c.4 4.2.5 8.5.5 12.8 0 4.5-.2 8.8-.6 13.1m-1.6-38.5 45.6-8.1-3.9-16.8-44.6 12c1.2 4.2 2.2 8.5 2.9 12.9m-6.7-25.2 53.1-19.5 2.3-10.5-6.3-7-53.9 25.4c1.8 3.8 3.4 7.6 4.8 11.6m-10.7-23.2 47.2-27.3-4.1-18.9-50.2 35.1c2.5 3.6 4.9 7.3 7.1 11.1m-15-21.4 66.2-55.3-6-24.8-19.9-8.2-57.8 70.6c6.3 5.3 12.1 11.3 17.5 17.7m-28-25.9 40.2-59-17.6-7.1-33.2 59.3c3.7 2.1 7.2 4.4 10.6 6.8m-22.3-13 17.3-37.7c-4.9-2.4-9.9-4.6-15-6.5l-14.2 39.3c4 1.4 8 3 11.9 4.9m23.3-50.9 16.3-35.6 12.3 21.1 19.1 7.9 8.2-11.7 43.6 17.8 11.6 47.6-13.2 8.7 4.8 20.1 20.2 22.1-7.5 33.1 4.1 17.6 14.7-2.4 9.1 38.9-9.4 38.9-14.4-2.7-4.1 17.8 7.8 32.7-20.8 22.7-4.5 20.1 12.3 8.7-10 47.3-44.3 18-8-11.9-19.3 7.6-22.1 24.8-33.4-1.7-18.7 8 2.5 14.2-43.1 18-43.1-18 2.5-14.2-18.7-8-33.4 1.7-22.1-24.8-19.3-7.6-8 11.9-44.3-18-10-47.3 12.3-8.7-4.4-20.1-20.7-22.5 7.8-32.7-4.1-17.8-14.4 2.7-9.4-38.9 9.1-38.9 14.7 2.4 4.1-17.6-7.5-33.2 20.2-22.1 4.8-20.1-13.2-8.7L55.4 209 99 191.2l8.2 11.7 19.1-7.9 12.3-21.1 16.3 35.5c26.1-12.3 55.2-19.2 85.9-19.2s60 6.9 86.3 19.2m-166.5 12.7 17.5 38.1c3.9-1.8 7.8-3.5 11.9-5l-14.2-39.5c-5.2 2-10.2 4.1-15.2 6.4m41.8 29.2c4.2-1.1 8.4-2.1 12.7-2.8l-7.3-41.3c-5.5 1-10.9 2.2-16.1 3.6zm25.6-4.5q6.3-.6 12.9-.6c6.6 0 8.7.2 13 .6l3.6-41.8c-5.4-.5-11-.7-16.7-.7-5.5 0-11 .2-16.4.7zm38.7 1.7c4.3.8 8.5 1.7 12.7 2.8l10.7-40.5c-5.3-1.5-10.6-2.7-16.1-3.7zm-100.4 17.9-33.2-59.2-17.6 7.1 40.2 59c3.5-2.4 7-4.7 10.6-6.9m-21 15-57.7-70.6-19.9 8.2-6 24.8 66.1 55.3c5.3-6.4 11.2-12.3 17.5-17.7m-25.5 28-50-35-4.1 18.9 47.1 27.2c2.1-3.8 4.5-7.5 7-11.1m-13.1 22.7-53.8-25.3-6.3 7 2.3 10.5 53 19.4c1.5-3.9 3.1-7.8 4.8-11.6m-8.6 24-44.5-12-3.9 16.8 45.5 8.1c.8-4.4 1.7-8.7 2.9-12.9m-4.5 25.6-62.7-5.5-4.5 18.4 4.7 18.5 62.6-5.5c-.4-4.3-.6-8.7-.6-13.1 0-4.3.1-8.6.5-12.8m1.7 38.5-45.5 8 3.9 16.6L98.1 433c-1.1-4.2-2.1-8.5-2.8-12.8m6.7 25.2-52.9 19.4-2.1 10.6 6 6.8 54-24.9c-1.9-3.8-3.5-7.8-5-11.9m11 23.5-47.3 27.5 4.4 18.8 50-35.1c-2.5-3.7-4.9-7.4-7.1-11.2m15.1 21.4L62 545.4l5.6 24.3 19.9 8.3 58.3-69.9c-6.3-5.4-12.3-11.4-17.7-17.8m27.7 25.4-40.6 58.9 17.9 7.1 33.3-59.2c-3.7-2.1-7.2-4.4-10.6-6.8m22.8 13.3-31.9 68.5 7.4 7.4 11-.5 25.2-70.5c-4-1.5-7.9-3.2-11.7-4.9m24.2 8.8-17.6 65.4 17.6 7.6 12.3-70.4c-4.1-.6-8.2-1.5-12.3-2.6m-96.4-143.3c0 74.5 60.2 134.9 134.5 134.9S375.4 469 375.4 394.5s-60.2-134.9-134.5-134.9S106.4 320 106.4 394.5" class="st0"/><path d="M240.9 292c-56.4 0-102.2 45.9-102.2 102.5S184.4 497 240.9 497c56.4 0 102.2-45.9 102.2-102.5S297.4 292 240.9 292m89.8 95h-19.2c-.2-2.1-2.3-27.1-22.7-45.6l13.1-13.2a90.6 90.6 0 0 1 28.8 58.8m-82.3-82.5c15.9 1.3 30.7 6.8 43.2 15.4l-13.5 13.5c-6.5-4-14.3-7.3-23.6-9.4v13.3c5.1 1.8 9.6 3.9 13.6 6.1L253 358.6l9.2 9.2L279 351c4.1 3.5 7.3 7.2 9.8 10.8l-23.9 24a25.7 25.7 0 0 0-16.5-15.8zm0 123.5v-9q2.85-.9 5.4-2.4l11.3 11.3v.1zm16.5 12.8-11.5 11.6c-1.7-3.2-3.1-7-4-11.6zm-16.5-57c1.3.8 2.4 1.9 3.1 3.2 1.6 2.2 2.5 4.9 2.5 7.8 0 2.8-.8 5.4-2.3 7.5-.9 1.3-2.1 2.5-3.4 3.4-2.1 1.4-4.7 2.3-7.5 2.3s-5.4-.8-7.5-2.3c-1.3-.9-2.5-2.1-3.4-3.4-1.4-2.1-2.3-4.7-2.3-7.5a13.2 13.2 0 0 1 5.8-11c2.2-1.4 4.7-2.3 7.5-2.3s5.4.8 7.5 2.3M233.5 419v11.2c-.2 8.7-1.8 15.4-4.3 20.7v-33.7c1.3.7 2.8 1.3 4.3 1.8m-23.7-109.2c7.5-2.7 15.4-4.5 23.6-5.3v58.3c-4.1-4.7-4.3-12.4-4.3-12.4v-32.3l-13.2-.1v16.4h-6.1zm-19 9.8c2-1.4 4.1-2.7 6.1-3.8v18.7h-6.1zm-32.9 109.8a91 91 0 0 1-6.6-27.2h6.6zm19.7 29.2c-2.5-2.5-4.8-5.1-7-7.8v-48.6h7zm0-108.2s-.4 14.8-11 16.1v20.4h-15.3c1.8-22 11.5-41.8 26.3-56.5zM197 468.2c-2.5 0-4.8-.2-6.8-.5v-65.5h6.8zm6.4-101.6c-3.5 0-6.4 3.1-6.4 6.6V387h-17.5v-13.7s12.4-9.5 11.1-26.3h25.6c-1.2 15.4 9.3 24.7 10.9 26.1-5 3.2-8.7 8.1-10.5 13.9h-6.8v-13.8c0-3.5-2.9-6.6-6.4-6.6m6.4 35.6h6.8v62c-2.2 1.1-4.5 2-6.8 2.6zm31.1 82.5c-9.9 0-19.5-1.6-28.5-4.6 18.1-5.3 28.6-20.9 28.6-20.9s10.5 15.6 28.5 20.9c-9 3-18.6 4.6-28.6 4.6m33.2-17.4c-4.2-.9-8.4-2.5-12.2-5.2l12.2-12.2zm0-48.5-11.2-11.2q1.5-2.55 2.4-5.4h8.8zm20.8-45.4c2.6 7.2 2.7 12.6 2.8 13.5h-16.2zm8.6 28.8L286.7 419v-16.8zm-9.5 65.2c-2 .3-4.5.7-7.3.8v-18.5l13.1 13.1c-1.9 1.6-3.8 3.1-5.8 4.6m14.8-13.8L296 440.8h22.1c-2.7 4.6-5.8 8.9-9.3 12.8m15.7-25.7h-28.6l25.7-25.7h8.9c-.7 9-2.8 17.6-6 25.7M340 42.3c-9.8 0-19 2.6-26.9 7.1a67.7 67.7 0 0 0-34.6-9.8c-14.8-.5-29.9 7-29.9 7v-8.4h13.6V24.3h-13.6V10.9h-15.3v13.4h-13.6v14.1h13.6v8.4s-15.2-7.5-30-7a66 66 0 0 0-34.6 9.7c-7.9-4.5-17.1-7.1-26.9-7.1-30.3 0-54.8 24.6-54.8 55 0 24.1 15.6 44.6 37.3 51.9a32.1 32.1 0 0 0 31 24.1c12.3 0 23-7 28.3-17.2a31.9 31.9 0 0 0 28.3 17.2c12.9 0 24.1-7.8 29.1-18.9 5 11.1 16.1 18.9 29.1 18.9 12.3 0 23-7 28.3-17.2a31.9 31.9 0 0 0 28.3 17.2c15 0 27.5-10.2 31-24.1a54.9 54.9 0 0 0 37.1-52c0-30.4-24.5-55-54.8-55m-212.6 92.8a6.8 6.8 0 1 1 .01-13.59 6.8 6.8 0 0 1-.01 13.59m-.2-27.7c-8.3 0-15.5 4.9-18.7 11.8-4.1-6.3-6.5-13.8-6.5-21.9a40 40 0 0 1 53.9-37.6 68 68 0 0 0-19.6 47.7zm28 53.4c-6.7 0-12.6-3.4-16.1-8.6-1.2-1.7-2-3.6-2.6-5.6a20.7 20.7 0 0 0 10.8-23c2.4-1.1 5.1-1.7 7.9-1.7 3 0 5.9.7 8.5 2-.3 1.4-.4 2.8-.4 4.1 0 7.9 4.3 14.7 10.7 18.2-2.1 8.4-9.8 14.6-18.8 14.6m28.8-25.7a6.8 6.8 0 1 1 .01-13.61 6.8 6.8 0 0 1-.01 13.61m-1.1-27.7c0-11.1 9-20.5 20.1-20.5v20.5zm28.8 53.5c-8.9 0-16.4-6-18.7-14.2a20.74 20.74 0 0 0 11-23.2c2.4-1 5-1.6 7.7-1.6 3.2 0 6.2.8 8.8 2.1-.3 1.4-.4 2.8-.5 4.2 0 7.7 4.2 14.5 10.5 18-2.1 8.4-9.7 14.7-18.8 14.7m21.7-53.5h-12.6V75.5s-8.3-5-18.7-5c-20.7-.7-35.4 17.3-35.4 36.9h-14.1c0-28.1 22.7-51.5 50.8-51.5 16.5-.3 30 9.8 30 9.8zm7.4 27.7a6.8 6.8 0 1 1 .01-13.59 6.8 6.8 0 0 1-.01 13.59m7.8-69.4s13.5-10.1 29.9-9.8c28.1 0 50.8 23.3 50.8 51.5h-14.1c0-19.6-14.7-37.6-35.4-36.9-10.4 0-18.7 5-18.7 5v31.9h-12.5zM278.8 87c11.1 0 20.2 9.3 20.2 20.4h-20.1zm-8.8 73.8c-9.2 0-16.9-6.4-18.9-15 6.1-3.6 10.2-10.2 10.2-17.7 0-1.3-.1-2.7-.3-4a19.7 19.7 0 0 1 16.8-.6c-.3 1.5-.5 3.1-.6 4.5 0 8.2 4.7 15.2 11.5 18.6-2.3 8.2-9.8 14.2-18.7 14.2m28-25.7a6.8 6.8 0 1 1 .01-13.59 6.8 6.8 0 0 1-.01 13.59m44.8 17.2c-3.4 5.2-9.4 8.6-16.1 8.6-9 0-16.6-6.2-18.8-14.6a20.9 20.9 0 0 0 10.3-22.4c2.5-1.3 5.4-2 8.5-2 2.8 0 5.5.6 7.9 1.7-.3 1.5-.5 3-.5 4.6 0 8.1 4.6 15.1 11.3 18.5-.6 2-1.5 3.9-2.6 5.6m12.1-17.2c-3.8 0-6.8-3-6.8-6.8s3-6.8 6.8-6.8a6.8 6.8 0 0 1 0 13.6m18.6-15.9c-3.4-7-10.5-11.8-18.9-11.8h-9c0-18.5-7.4-35.4-19.5-47.7 4.3-1.6 9-2.5 13.9-2.5 22.1 0 40 18 40 40.1 0 8.1-2.4 15.6-6.5 21.9" class="st0"/><path d="m269.3 496.1-1.9 3.3-3.1.8 1.5-3.2z" class="st0"/></svg>