<?xml version="1.0" encoding="utf-8"?>
<!-- Generator: Adobe Illustrator 25.2.3, SVG Export Plug-In . SVG Version: 6.00 Build 0)  -->
<svg version="1.1" id="Capa_1" xmlns="http://www.w3.org/2000/svg" xmlns:xlink="http://www.w3.org/1999/xlink" x="0px" y="0px"
	 viewBox="0 0 221.6 43.4" style="enable-background:new 0 0 221.6 43.4;" xml:space="preserve">
	 <title> Logotipo de MurciaSalud</title>
<style type="text/css">
	.st0{fill:#3F3F3F;stroke:#3F3F3F;stroke-width:0.25;stroke-miterlimit:10;}
	.st1{fill:#F78E2F;}
	.st2{fill:none;stroke:#F78E2F;stroke-width:2;}
	.st3{fill:#01447B;}
	.st4{fill:#76C4FD;}
</style>
<g>
	<path class="st0" d="M6.2,36.5H3.1v2.9h3.5v0.9H2v-8.1h4.4v0.9H3.1v2.6h3.1V36.5z"/>
	<path class="st0" d="M8.3,31.8h1.1v8.5H8.3V31.8z"/>
	<path class="st0" d="M14.4,36.4c0-0.7,0-1.3,0-1.9h0.9l0,1h0c0.4-0.7,1.1-1.1,2.1-1.1c1.4,0,2.5,1.2,2.5,3c0,2.1-1.3,3.1-2.6,3.1
		c-0.8,0-1.4-0.3-1.8-0.9h0v3.2h-1V36.4z M15.4,37.9c0,0.2,0,0.3,0,0.4c0.2,0.7,0.8,1.2,1.6,1.2c1.1,0,1.8-0.9,1.8-2.2
		c0-1.2-0.6-2.2-1.7-2.2c-0.7,0-1.4,0.5-1.6,1.3c0,0.1-0.1,0.3-0.1,0.4V37.9z"/>
	<path class="st0" d="M26.9,37.4c0,2.1-1.5,3.1-2.9,3.1c-1.6,0-2.8-1.2-2.8-3c0-1.9,1.3-3.1,2.9-3.1C25.7,34.4,26.9,35.6,26.9,37.4z
		 M22.3,37.4c0,1.3,0.7,2.2,1.8,2.2c1,0,1.8-0.9,1.8-2.3c0-1-0.5-2.2-1.7-2.2C22.8,35.2,22.3,36.3,22.3,37.4z"/>
	<path class="st0" d="M28.6,36.3c0-0.7,0-1.3,0-1.8h0.9l0,1.1h0c0.3-0.8,0.9-1.3,1.6-1.3c0.1,0,0.2,0,0.3,0v1c-0.1,0-0.2,0-0.4,0
		c-0.7,0-1.3,0.6-1.4,1.4c0,0.1,0,0.3,0,0.5v3.1h-1V36.3z"/>
	<path class="st0" d="M34.5,32.8v1.7H36v0.8h-1.5v3.1c0,0.7,0.2,1.1,0.8,1.1c0.3,0,0.5,0,0.6-0.1l0,0.8c-0.2,0.1-0.5,0.1-0.9,0.1
		c-0.5,0-0.9-0.2-1.1-0.4c-0.3-0.3-0.4-0.8-0.4-1.5v-3.2h-0.9v-0.8h0.9v-1.4L34.5,32.8z"/>
	<path class="st0" d="M40.8,40.3l-0.1-0.7h0c-0.3,0.5-0.9,0.9-1.8,0.9c-1.2,0-1.8-0.8-1.8-1.7c0-1.4,1.2-2.2,3.5-2.2v-0.1
		c0-0.5-0.1-1.3-1.3-1.3c-0.5,0-1.1,0.2-1.5,0.4l-0.2-0.7c0.5-0.3,1.2-0.5,1.9-0.5c1.8,0,2.2,1.2,2.2,2.4v2.2c0,0.5,0,1,0.1,1.4
		H40.8z M40.6,37.3c-1.2,0-2.5,0.2-2.5,1.3c0,0.7,0.5,1,1,1c0.8,0,1.2-0.5,1.4-1c0-0.1,0.1-0.2,0.1-0.3V37.3z"/>
	<path class="st0" d="M43.7,31.8h1.1v8.5h-1.1V31.8z"/>
	<path class="st0" d="M49.7,39.2c0.3,0.2,0.9,0.4,1.4,0.4c0.8,0,1.1-0.4,1.1-0.9c0-0.5-0.3-0.8-1.1-1.1c-1-0.4-1.5-0.9-1.5-1.6
		c0-0.9,0.8-1.7,2-1.7c0.6,0,1.1,0.2,1.4,0.4l-0.3,0.8c-0.2-0.1-0.6-0.3-1.2-0.3c-0.6,0-1,0.4-1,0.8c0,0.5,0.3,0.7,1.1,1
		c1,0.4,1.5,0.9,1.5,1.8c0,1-0.8,1.7-2.2,1.7c-0.6,0-1.2-0.2-1.6-0.4L49.7,39.2z"/>
	<path class="st0" d="M58.2,40.3l-0.1-0.7h0c-0.3,0.5-0.9,0.9-1.8,0.9c-1.2,0-1.8-0.8-1.8-1.7c0-1.4,1.2-2.2,3.5-2.2v-0.1
		c0-0.5-0.1-1.3-1.3-1.3c-0.5,0-1.1,0.2-1.5,0.4l-0.2-0.7c0.5-0.3,1.2-0.5,1.9-0.5c1.8,0,2.2,1.2,2.2,2.4v2.2c0,0.5,0,1,0.1,1.4
		H58.2z M58,37.3c-1.2,0-2.5,0.2-2.5,1.3c0,0.7,0.5,1,1,1c0.8,0,1.2-0.5,1.4-1c0-0.1,0.1-0.2,0.1-0.3V37.3z"/>
	<path class="st0" d="M61.2,36.1c0-0.6,0-1.1,0-1.6H62l0.1,1h0c0.3-0.6,1-1.1,1.9-1.1c0.8,0,2.1,0.5,2.1,2.5v3.5H65V37
		c0-0.9-0.3-1.7-1.3-1.7c-0.7,0-1.2,0.5-1.4,1.1c0,0.1-0.1,0.3-0.1,0.5v3.5h-1.1V36.1z"/>
	<path class="st0" d="M69.4,32.9c0,0.4-0.3,0.6-0.7,0.6c-0.4,0-0.6-0.3-0.6-0.6c0-0.4,0.3-0.7,0.7-0.7
		C69.1,32.2,69.4,32.5,69.4,32.9z M68.2,40.3v-5.8h1.1v5.8H68.2z"/>
	<path class="st0" d="M72.7,32.8v1.7h1.5v0.8h-1.5v3.1c0,0.7,0.2,1.1,0.8,1.1c0.3,0,0.5,0,0.6-0.1l0,0.8c-0.2,0.1-0.5,0.1-0.9,0.1
		c-0.5,0-0.9-0.2-1.1-0.4c-0.3-0.3-0.4-0.8-0.4-1.5v-3.2h-0.9v-0.8h0.9v-1.4L72.7,32.8z"/>
	<path class="st0" d="M79,40.3l-0.1-0.7h0c-0.3,0.5-0.9,0.9-1.8,0.9c-1.2,0-1.8-0.8-1.8-1.7c0-1.4,1.2-2.2,3.5-2.2v-0.1
		c0-0.5-0.1-1.3-1.3-1.3c-0.5,0-1.1,0.2-1.5,0.4l-0.2-0.7c0.5-0.3,1.2-0.5,1.9-0.5c1.8,0,2.2,1.2,2.2,2.4v2.2c0,0.5,0,1,0.1,1.4H79z
		 M78.8,37.3c-1.2,0-2.5,0.2-2.5,1.3c0,0.7,0.5,1,1,1c0.8,0,1.2-0.5,1.4-1c0-0.1,0.1-0.2,0.1-0.3V37.3z"/>
	<path class="st0" d="M81.9,36.3c0-0.7,0-1.3,0-1.8h0.9l0,1.1h0c0.3-0.8,0.9-1.3,1.6-1.3c0.1,0,0.2,0,0.3,0v1c-0.1,0-0.2,0-0.4,0
		c-0.7,0-1.3,0.6-1.4,1.4c0,0.1,0,0.3,0,0.5v3.1h-1V36.3z"/>
	<path class="st0" d="M87.4,32.9c0,0.4-0.3,0.6-0.7,0.6c-0.4,0-0.6-0.3-0.6-0.6c0-0.4,0.3-0.7,0.7-0.7
		C87.2,32.2,87.4,32.5,87.4,32.9z M86.3,40.3v-5.8h1.1v5.8H86.3z"/>
	<path class="st0" d="M94.7,37.4c0,2.1-1.5,3.1-2.9,3.1c-1.6,0-2.8-1.2-2.8-3c0-1.9,1.3-3.1,2.9-3.1C93.6,34.4,94.7,35.6,94.7,37.4z
		 M90.1,37.4c0,1.3,0.7,2.2,1.8,2.2c1,0,1.8-0.9,1.8-2.3c0-1-0.5-2.2-1.7-2.2C90.6,35.2,90.1,36.3,90.1,37.4z"/>
	<path class="st0" d="M104.4,31.8v7c0,0.5,0,1.1,0,1.5h-0.9l0-1h0c-0.3,0.6-1,1.1-2,1.1c-1.4,0-2.5-1.2-2.5-3c0-1.9,1.2-3.1,2.6-3.1
		c0.9,0,1.5,0.4,1.8,0.9h0v-3.5H104.4z M103.3,36.9c0-0.1,0-0.3,0-0.4c-0.2-0.7-0.7-1.2-1.5-1.2c-1.1,0-1.7,1-1.7,2.2
		c0,1.2,0.6,2.1,1.7,2.1c0.7,0,1.4-0.5,1.5-1.3c0-0.1,0-0.3,0-0.5V36.9z"/>
	<path class="st0" d="M107.1,37.6c0,1.4,0.9,2,2,2c0.8,0,1.2-0.1,1.6-0.3l0.2,0.8c-0.4,0.2-1,0.4-1.9,0.4c-1.8,0-2.9-1.2-2.9-2.9
		c0-1.8,1-3.1,2.7-3.1c1.9,0,2.4,1.7,2.4,2.7c0,0.2,0,0.4,0,0.5H107.1z M110.2,36.8c0-0.7-0.3-1.7-1.5-1.7c-1.1,0-1.5,1-1.6,1.7
		H110.2z"/>
	<path class="st0" d="M115.8,31.8h1.1v8.5h-1.1V31.8z"/>
	<path class="st0" d="M122.3,40.3l-0.1-0.7h0c-0.3,0.5-0.9,0.9-1.8,0.9c-1.2,0-1.8-0.8-1.8-1.7c0-1.4,1.2-2.2,3.5-2.2v-0.1
		c0-0.5-0.1-1.3-1.3-1.3c-0.5,0-1.1,0.2-1.5,0.4l-0.2-0.7c0.5-0.3,1.2-0.5,1.9-0.5c1.8,0,2.2,1.2,2.2,2.4v2.2c0,0.5,0,1,0.1,1.4
		H122.3z M122.1,37.3c-1.2,0-2.5,0.2-2.5,1.3c0,0.7,0.5,1,1,1c0.8,0,1.2-0.5,1.4-1c0-0.1,0.1-0.2,0.1-0.3V37.3z"/>
	<path class="st0" d="M128.2,32.3c0.5-0.1,1.3-0.2,2-0.2c1.1,0,1.8,0.2,2.3,0.7c0.4,0.4,0.6,0.9,0.6,1.5c0,1.1-0.7,1.8-1.5,2.1v0
		c0.6,0.2,1,0.8,1.2,1.6c0.3,1.1,0.5,1.9,0.6,2.2h-1.1c-0.1-0.2-0.3-0.9-0.5-1.9c-0.2-1.1-0.7-1.5-1.6-1.6h-1v3.5h-1V32.3z
		 M129.2,36h1.1c1.1,0,1.8-0.6,1.8-1.5c0-1-0.8-1.5-1.9-1.5c-0.5,0-0.9,0-1,0.1V36z"/>
	<path class="st0" d="M135.6,37.6c0,1.4,0.9,2,2,2c0.8,0,1.2-0.1,1.6-0.3l0.2,0.8c-0.4,0.2-1,0.4-1.9,0.4c-1.8,0-2.9-1.2-2.9-2.9
		c0-1.8,1-3.1,2.7-3.1c1.9,0,2.4,1.7,2.4,2.7c0,0.2,0,0.4,0,0.5H135.6z M138.7,36.8c0-0.7-0.3-1.7-1.5-1.7c-1.1,0-1.5,1-1.6,1.7
		H138.7z"/>
	<path class="st0" d="M146.4,34.5c0,0.4,0,0.9,0,1.6v3.4c0,1.3-0.3,2.1-0.8,2.7c-0.6,0.5-1.4,0.7-2.1,0.7c-0.7,0-1.5-0.2-1.9-0.5
		l0.3-0.8c0.4,0.2,1,0.5,1.7,0.5c1.1,0,1.9-0.6,1.9-2v-0.6h0c-0.3,0.5-0.9,1-1.8,1c-1.4,0-2.5-1.2-2.5-2.8c0-2,1.3-3.1,2.6-3.1
		c1,0,1.6,0.5,1.8,1h0l0-0.9H146.4z M145.3,36.8c0-0.2,0-0.3-0.1-0.5c-0.2-0.6-0.7-1.1-1.5-1.1c-1,0-1.7,0.9-1.7,2.2
		c0,1.1,0.6,2.1,1.7,2.1c0.6,0,1.2-0.4,1.5-1.1c0.1-0.2,0.1-0.4,0.1-0.6V36.8z"/>
	<path class="st0" d="M149.6,32.9c0,0.4-0.3,0.6-0.7,0.6c-0.4,0-0.6-0.3-0.6-0.6c0-0.4,0.3-0.7,0.7-0.7
		C149.4,32.2,149.6,32.5,149.6,32.9z M148.5,40.3v-5.8h1.1v5.8H148.5z"/>
	<path class="st0" d="M156.9,37.4c0,2.1-1.5,3.1-2.9,3.1c-1.6,0-2.8-1.2-2.8-3c0-1.9,1.3-3.1,2.9-3.1
		C155.8,34.4,156.9,35.6,156.9,37.4z M152.3,37.4c0,1.3,0.7,2.2,1.8,2.2c1,0,1.8-0.9,1.8-2.3c0-1-0.5-2.2-1.7-2.2
		C152.8,35.2,152.3,36.3,152.3,37.4z M155.6,32l-1.5,1.7h-0.8l1.1-1.7H155.6z"/>
	<path class="st0" d="M158.6,36.1c0-0.6,0-1.1,0-1.6h0.9l0.1,1h0c0.3-0.6,1-1.1,1.9-1.1c0.8,0,2.1,0.5,2.1,2.5v3.5h-1.1V37
		c0-0.9-0.3-1.7-1.3-1.7c-0.7,0-1.2,0.5-1.4,1.1c0,0.1-0.1,0.3-0.1,0.5v3.5h-1.1V36.1z"/>
	<path class="st0" d="M173.6,31.8v7c0,0.5,0,1.1,0,1.5h-0.9l0-1h0c-0.3,0.6-1,1.1-2,1.1c-1.4,0-2.5-1.2-2.5-3c0-1.9,1.2-3.1,2.6-3.1
		c0.9,0,1.5,0.4,1.8,0.9h0v-3.5H173.6z M172.5,36.9c0-0.1,0-0.3,0-0.4c-0.2-0.7-0.7-1.2-1.5-1.2c-1.1,0-1.7,1-1.7,2.2
		c0,1.2,0.6,2.1,1.7,2.1c0.7,0,1.4-0.5,1.5-1.3c0-0.1,0-0.3,0-0.5V36.9z"/>
	<path class="st0" d="M176.3,37.6c0,1.4,0.9,2,2,2c0.8,0,1.2-0.1,1.6-0.3l0.2,0.8c-0.4,0.2-1,0.4-1.9,0.4c-1.8,0-2.9-1.2-2.9-2.9
		c0-1.8,1-3.1,2.7-3.1c1.9,0,2.4,1.7,2.4,2.7c0,0.2,0,0.4,0,0.5H176.3z M179.4,36.8c0-0.7-0.3-1.7-1.5-1.7c-1.1,0-1.5,1-1.6,1.7
		H179.4z"/>
	<path class="st0" d="M191.9,36.8c-0.1-1.1-0.1-2.5-0.1-3.5h0c-0.3,0.9-0.6,2-1,3.1l-1.4,3.9h-0.8l-1.3-3.8
		c-0.4-1.1-0.7-2.2-0.9-3.1h0c0,1-0.1,2.4-0.2,3.6l-0.2,3.5h-1l0.6-8.1h1.3l1.4,3.9c0.3,1,0.6,1.9,0.8,2.7h0
		c0.2-0.8,0.5-1.7,0.9-2.7l1.4-3.9h1.3l0.5,8.1h-1L191.9,36.8z"/>
	<path class="st0" d="M200,38.7c0,0.6,0,1.1,0,1.6h-0.9l-0.1-0.9h0c-0.3,0.5-0.9,1.1-1.9,1.1c-0.9,0-2-0.5-2-2.5v-3.4h1.1v3.2
		c0,1.1,0.3,1.8,1.3,1.8c0.7,0,1.2-0.5,1.4-1c0.1-0.2,0.1-0.3,0.1-0.5v-3.6h1.1V38.7z"/>
	<path class="st0" d="M202.1,36.3c0-0.7,0-1.3,0-1.8h0.9l0,1.1h0c0.3-0.8,0.9-1.3,1.6-1.3c0.1,0,0.2,0,0.3,0v1c-0.1,0-0.2,0-0.4,0
		c-0.7,0-1.3,0.6-1.4,1.4c0,0.1,0,0.3,0,0.5v3.1h-1V36.3z"/>
	<path class="st0" d="M210.5,40.1c-0.3,0.1-0.9,0.3-1.7,0.3c-1.8,0-2.9-1.2-2.9-3c0-1.8,1.2-3.1,3.1-3.1c0.6,0,1.2,0.2,1.5,0.3
		l-0.2,0.8c-0.3-0.1-0.6-0.3-1.2-0.3c-1.3,0-2.1,1-2.1,2.2c0,1.3,0.9,2.2,2,2.2c0.6,0,1-0.2,1.3-0.3L210.5,40.1z"/>
	<path class="st0" d="M213.2,32.9c0,0.4-0.3,0.6-0.7,0.6c-0.4,0-0.6-0.3-0.6-0.6c0-0.4,0.3-0.7,0.7-0.7
		C213,32.2,213.2,32.5,213.2,32.9z M212.1,40.3v-5.8h1.1v5.8H212.1z"/>
	<path class="st0" d="M218.5,40.3l-0.1-0.7h0c-0.3,0.5-0.9,0.9-1.8,0.9c-1.2,0-1.8-0.8-1.8-1.7c0-1.4,1.2-2.2,3.5-2.2v-0.1
		c0-0.5-0.1-1.3-1.3-1.3c-0.5,0-1.1,0.2-1.5,0.4l-0.2-0.7c0.5-0.3,1.2-0.5,1.9-0.5c1.8,0,2.2,1.2,2.2,2.4v2.2c0,0.5,0,1,0.1,1.4
		H218.5z M218.3,37.3c-1.2,0-2.5,0.2-2.5,1.3c0,0.7,0.5,1,1,1c0.8,0,1.2-0.5,1.4-1c0-0.1,0.1-0.2,0.1-0.3V37.3z"/>
</g>
<g>
	<path class="st1" d="M122.8,19.8v6.5H120v-6.5h-6.4v-2.7h6.4v-6.4h2.8v6.4h6.4v2.7H122.8z"/>
</g>
<ellipse class="st2" cx="121.6" cy="18.4" rx="12.3" ry="11.7"/>
<g>
	<path class="st3" d="M15.7,28.5h-3V18.1c0-1.7-0.2-2.8-0.7-3.4c-0.5-0.6-1.4-0.9-2.6-0.9c-1.5,0-2.9,0.6-4.1,1.9v12.8h-3V11.6h3v2
		c1.3-1.6,3.1-2.4,5.3-2.4c2.4,0,3.9,1,4.7,2.9c1.5-1.9,3.3-2.9,5.6-2.9c3.6,0,5.4,2,5.4,6v11.4h-3V18.1c0-1.5-0.3-2.5-0.8-3.2
		c-0.5-0.7-1.4-1.1-2.6-1.1c-1.5,0-2.9,0.7-4.2,2c0.1,0.3,0.1,0.8,0.1,1.6V28.5z"/>
	<path class="st3" d="M44.4,28.5h-3v-2c-1.4,1.6-3.2,2.4-5.3,2.4c-1.6,0-2.9-0.5-3.8-1.5s-1.4-2.5-1.4-4.5V11.6h3v10.6
		c0,1.5,0.2,2.6,0.7,3.2c0.5,0.6,1.3,1,2.5,1c1.6,0,3-0.7,4.3-2V11.6h3V28.5z"/>
	<path class="st3" d="M59.8,14.7h-0.2l-0.9-0.2c-0.6-0.1-1.2-0.2-1.7-0.2c-1.7,0-3.3,0.8-4.7,2.4v11.7h-3.1V11.6h3.1v2.6
		c1.9-1.9,3.6-2.8,5.3-2.8c0.8,0,1.5,0.1,2.1,0.3V14.7z"/>
	<path class="st3" d="M73.8,12.5v2.9h-0.3c-1.4-1.1-2.8-1.7-4.5-1.7c-3,0-4.6,2.1-4.6,6.4c0,2.1,0.4,3.7,1.2,4.9s1.9,1.7,3.4,1.7
		c1.5,0,3-0.6,4.4-1.8h0.3v2.6c-1.5,1-3.2,1.6-5.1,1.6c-2.3,0-4.1-0.8-5.4-2.3c-1.3-1.5-1.9-3.7-1.9-6.5c0-2.8,0.7-5,2.1-6.5
		c1.4-1.6,3.2-2.3,5.5-2.3C70.5,11.2,72.2,11.6,73.8,12.5z"/>
	<path class="st3" d="M81.3,8h-3.4V4.6h3.4V8z M81.1,28.5h-3V11.6h3V28.5z"/>
	<path class="st3" d="M96.2,26.8c-1.4,1.4-3.3,2.1-5.7,2.1c-1.5,0-2.7-0.5-3.7-1.4c-1-1-1.5-2.2-1.5-3.7c0-2.3,0.9-3.9,2.8-4.8
		s4.5-1.4,8.1-1.5V17c0-1.1-0.4-2-1.1-2.6s-1.8-0.9-3.2-0.9c-1.5,0-3,0.4-4.7,1.1h-0.2V12c1.7-0.6,3.4-0.9,5-0.9
		c2.5,0,4.4,0.5,5.6,1.5s1.7,2.5,1.7,4.7v11.2h-3V26.8z M96.2,19.5c-2.6,0.1-4.6,0.4-5.9,0.9c-1.3,0.5-2,1.6-2,3.1
		c0,2.1,1.1,3.1,3.4,3.1c1.6,0,3.1-0.6,4.5-1.9V19.5z"/>
</g>
<g>
	<path class="st4" d="M142.7,27.9V25h0.2c0.7,0.6,1.6,1.1,2.7,1.5s2.1,0.6,3.1,0.6c2.4,0,3.6-0.9,3.6-2.7c0-0.7-0.2-1.3-0.7-1.6
		c-0.5-0.3-1.6-0.7-3.3-1.2c-2.4-0.6-4-1.3-4.6-2.1c-0.7-0.8-1-1.8-1-2.9c0-1.5,0.6-2.7,1.7-3.6c1.1-1,2.7-1.4,4.6-1.4
		c2,0,3.8,0.4,5.4,1.3v2.8h-0.2c-1.6-1.2-3.4-1.8-5.3-1.8c-1,0-1.8,0.2-2.4,0.7s-1,1-1,1.8c0,0.8,0.2,1.3,0.7,1.7
		c0.5,0.4,1.7,0.8,3.5,1.2c2,0.5,3.3,1.1,4.1,1.8c0.8,0.7,1.2,1.7,1.2,3.1c0,1.5-0.6,2.8-1.7,3.7c-1.1,0.9-2.7,1.4-4.5,1.4
		C146.4,29.3,144.4,28.8,142.7,27.9z"/>
	<path class="st4" d="M168.8,27.2c-1.4,1.4-3.3,2.1-5.7,2.1c-1.5,0-2.7-0.5-3.7-1.4c-1-1-1.5-2.2-1.5-3.7c0-2.3,0.9-3.9,2.8-4.8
		s4.5-1.4,8.1-1.5v-0.4c0-1.1-0.4-2-1.1-2.6s-1.8-0.9-3.2-0.9c-1.5,0-3,0.4-4.7,1.1h-0.2v-2.6c1.7-0.6,3.4-0.9,5-0.9
		c2.5,0,4.4,0.5,5.6,1.5c1.2,1,1.7,2.5,1.7,4.7v11.2h-3V27.2z M168.8,19.9c-2.6,0.1-4.6,0.4-5.9,0.9c-1.3,0.5-2,1.6-2,3.1
		c0,2.1,1.1,3.1,3.4,3.1c1.6,0,3.1-0.6,4.5-1.9V19.9z"/>
	<path class="st4" d="M180.3,28.9h-3V3.8h3V28.9z"/>
	<path class="st4" d="M199.3,28.9h-3v-2c-1.4,1.6-3.2,2.4-5.3,2.4c-1.6,0-2.9-0.5-3.8-1.5c-0.9-1-1.4-2.5-1.4-4.5V12h3v10.6
		c0,1.5,0.2,2.6,0.7,3.2c0.5,0.6,1.3,1,2.5,1c1.6,0,3-0.7,4.3-2V12h3V28.9z"/>
	<path class="st4" d="M218.2,28.9h-3V27c-1.6,1.5-3.3,2.3-5.2,2.3c-1.9,0-3.4-0.7-4.5-2.2s-1.6-3.6-1.6-6.5c0-2.6,0.6-4.7,1.9-6.3
		c1.3-1.7,2.9-2.5,4.9-2.5c1.5,0,3,0.4,4.4,1.2V3.8h3V28.9z M215.2,15.1c-1-0.7-2.2-1-3.7-1c-1.4,0-2.5,0.6-3.3,1.7
		c-0.8,1.1-1.2,2.7-1.2,4.8c0,4.2,1.3,6.3,3.8,6.3c1.5,0,3-0.6,4.4-1.9V15.1z"/>
</g>
</svg>
